<svg id="Layer_1" data-name="Layer 1" xmlns="http://www.w3.org/2000/svg" viewBox="0 0 5000 4000"><defs><style>.cls-1{fill:#4d4d4d;}.cls-1,.cls-2,.cls-3{fill-rule:evenodd;}.cls-2,.cls-6{fill:#f64c72;}.cls-3,.cls-5{fill:#2f2fa2;}.cls-4{fill:none;}.cls-5{font-size:643.03px;font-family:CooperBlack, Cooper Black;}.cls-6{font-size:443.79px;font-family:ScriptMTBold, Script MT Bold;}</style></defs><path class="cls-1" d="M615.15,1834.21a42.35,42.35,0,0,0-5.38-7.07c-3.46-3.79-6.95-7.15-9.87-11.36q-11.76-1.79-23.51-4.2c2.09,2.44,4.36,4.7,6.56,7.12,3.82,4.19,6.82,8.34,8.69,13.83.26.77.5,1.55.71,2.35,7.4-.07,15-.28,22.8-.67m21.6-1.56-.55-.6c-3.87-4.25-7.78-7.93-10.87-12.89l-.19-.3q-9.4-.87-18.88-2.17c2.15,2.52,4.48,4.85,6.75,7.34a43,43,0,0,1,7.07,9.9C625.6,1833.6,631.17,1833.18,636.75,1832.65Zm16.59-1.88a48,48,0,0,1-4.54-6,37.44,37.44,0,0,1-2.38-4.45q-7.73-.32-15.53-.94c2.59,3.44,5.63,6.38,8.55,9.58,1,1,1.87,2.11,2.72,3.18Q647.77,1831.51,653.34,1830.77Zm20.2-3.27a42.76,42.76,0,0,1-3.52-4.83c-.43-.68-.84-1.38-1.21-2.08q-8.59.14-17.33-.12c.33.61.68,1.21,1,1.81a51.3,51.3,0,0,0,6.17,7.73C663.7,1829.27,668.66,1828.44,673.54,1827.5Zm37.71-10.17a336.6,336.6,0,0,1-37.34,3.14,46.24,46.24,0,0,0,4.67,6A231,231,0,0,0,711.25,1817.33Zm-39.62-17.2a15.84,15.84,0,0,0,2.27,3,39.52,39.52,0,0,1,4.79,5.53,17.11,17.11,0,0,1,2.14,4.92,321,321,0,0,0,33-3.31A349.27,349.27,0,0,1,671.63,1800.13Zm-26.84-8.89a19.57,19.57,0,0,0,4.38,6.81c2.31,2.46,4.61,4.58,6.45,7.45a23,23,0,0,1,3.28,8.51q8.8.09,17.43-.23c-1-2.91-2.88-4.69-5.64-7.64a17.22,17.22,0,0,1-4.43-7.67c-4.94-1.55-9.81-3.17-14.61-4.82Q648.22,1792.46,644.79,1791.24Zm-25.07-9.53a21.36,21.36,0,0,0,5.92,10.78c2.65,2.84,5.32,5.29,7.45,8.6a27.52,27.52,0,0,1,4.1,12.11q8.65.55,17.22.75a18.47,18.47,0,0,0-2.49-6.07c-1.65-2.58-3.88-4.6-6-6.82a22.33,22.33,0,0,1-6.19-11.64Q629.7,1785.73,619.72,1781.71Zm-26.86-11.34a25,25,0,0,0,7.83,17c3.25,3.48,6.54,6.49,9.15,10.55a32.73,32.73,0,0,1,4.79,13.24q9.07,1.08,18.09,1.77a22.64,22.64,0,0,0-3.33-9.41c-1.94-3-4.53-5.38-7-8-4.76-5.08-6.91-10-7.41-15.69Q603.88,1775.25,592.86,1770.37Zm-32-14.79a33.64,33.64,0,0,0,1.75,9.64c1.65,4.69,4.32,8.2,7.68,11.78,3.84,4.09,7.71,7.64,10.78,12.43a39.3,39.3,0,0,1,5.87,17.48q11.58,2.13,23.16,3.63a28.08,28.08,0,0,0-4-10.29c-2.42-3.77-5.63-6.69-8.66-9.92-6.58-7-9.05-13.73-9.15-22q-11.54-5.16-22.9-10.58Zm-35.76-17.85a41.48,41.48,0,0,0,1.94,15.2c1.82,5.17,4.76,9,8.46,13,4.18,4.47,8.43,8.35,11.78,13.57a43.34,43.34,0,0,1,6.48,20q14.25,3.73,28.65,6.53a34.27,34.27,0,0,0-5-14.26c-2.88-4.49-6.68-7.94-10.29-11.8-3.79-4-6.76-8-8.62-13.33a40.29,40.29,0,0,1-2.05-13.24Q540.68,1745.81,525.09,1737.73Zm-33.91-18.11c-.94,7.26-1.09,15.16,1.36,22.12,1.81,5.17,4.75,9,8.45,13,4.19,4.46,8.43,8.35,11.78,13.57a43.68,43.68,0,0,1,6.54,20.74q14.76,5.15,29.9,9.28a38.28,38.28,0,0,0-5.64-16.45c-3.17-4.93-7.33-8.72-11.29-12.94-4.13-4.41-7.37-8.76-9.39-14.53a47.55,47.55,0,0,1-2.09-18.88Q505.92,1727.74,491.18,1719.62Zm-37.67-21.43c-.74,7.45-.58,15.3,1.88,22.34,2.07,5.9,5.44,10.32,9.66,14.83,4.74,5.05,9.55,9.46,13.34,15.37,4.93,7.68,7,16,7.49,25q14.13,6.3,28.86,11.63a38.28,38.28,0,0,0-5.67-16.74c-3.16-4.93-7.33-8.72-11.29-13-4.13-4.4-7.37-8.75-9.39-14.52-2.77-7.89-2.59-16.67-1.48-24.85l.14-1Q470.16,1708,453.51,1698.19Zm-40.43-24.33c-1,8.56-1.06,17.74,1.8,25.89,2.22,6.32,5.82,11,10.34,15.88,5,5.38,10.17,10.07,14.21,16.37,4.74,7.38,7,15.37,7.77,23.9a382,382,0,0,0,34.12,17.82,44.57,44.57,0,0,0-6.63-20.62c-3.6-5.61-8.33-9.92-12.85-14.73-4.66-5-8.31-9.88-10.6-16.39-2.92-8.32-2.93-17.53-1.89-26.23q-17-10-33.66-20.4C414.85,1674.83,414,1674.33,413.08,1673.86Zm-34.56,27,1.32,1.45c17.38,19.12,38.71,36.1,62.6,50.69a45.89,45.89,0,0,0-6.71-18.67c-3.85-6-8.9-10.59-13.72-15.74s-8.85-10.5-11.27-17.42c-3.25-9.24-3.12-19.52-1.87-29.13a16.81,16.81,0,0,0-10.61-.28c-7.62,2.5-13,10.82-16,17.77A69,69,0,0,0,378.52,1700.9Zm44.8,102.76c2.13-7.1,3.55-14.86,2.48-22.21-.85-5.84-3.13-10.53-6.16-15.46-3.47-5.62-7.1-10.63-9.54-16.89a44.19,44.19,0,0,1-2.88-12.45A267.13,267.13,0,0,1,377,1709a98.89,98.89,0,0,0-.8,18.44c1.57,31.51,17.07,60.4,45.5,75.39Zm58.13,20.13c.63-6.23.55-12.84-1.46-18.74-1.65-4.82-4.32-8.43-7.68-12.12-3.83-4.2-7.71-7.86-10.78-12.78a38.27,38.27,0,0,1-4.72-11.28A345.56,345.56,0,0,1,413,1741.08a37.89,37.89,0,0,0,1.81,6.07c2.29,5.87,5.86,10.75,9.12,16,3.42,5.56,5.93,10.88,6.89,17.47,1.23,8.44-.38,17.19-2.88,25.28C444.11,1813.65,462.47,1819.47,481.45,1823.79Zm36.73,6.56a37.44,37.44,0,0,0-1.8-11.35c-1.65-4.83-4.32-8.44-7.68-12.12-3.84-4.21-7.71-7.87-10.78-12.79a36.91,36.91,0,0,1-3.6-7.51c-11-4.52-21.66-9.46-32-14.81a32.69,32.69,0,0,0,2.92,5.94c2.88,4.61,6.68,8.17,10.29,12.13,3.79,4.16,6.76,8.27,8.62,13.72,2.29,6.72,2.39,14.13,1.63,21.19C496.51,1827.06,507.41,1828.9,518.18,1830.35Zm38.11,3.64a35.05,35.05,0,0,0-1.69-8.74c-1.66-4.87-4.36-8.51-7.75-12.22s-6.94-7.14-9.85-11.35c-12.52-3.74-24.86-8-36.92-12.77a29.8,29.8,0,0,0,1.54,2.74c2.88,4.62,6.68,8.17,10.29,12.13,3.79,4.16,6.76,8.27,8.62,13.72a42.38,42.38,0,0,1,2.05,13.42C534.13,1832.36,545.48,1833.35,556.29,1834Zm-6.2-24.08c3.82,4.19,6.82,8.34,8.69,13.83a40,40,0,0,1,2,10.49l2.37.12c7.69.35,16,.55,24.61.55-.08-.29-.18-.58-.27-.86-1.67-4.87-4.36-8.51-7.75-12.23-3.54-3.88-7.12-7.31-10.08-11.67q-12.66-2.79-25.19-6.3C546.27,1805.89,548.21,1807.84,550.09,1809.91Zm285.07,16.52a46.17,46.17,0,0,0,4.62-6,337.63,337.63,0,0,1-36.82-3.06A233.45,233.45,0,0,0,835.16,1826.43ZM855,1830a51.22,51.22,0,0,0,6.13-7.69c.37-.6.72-1.2,1.05-1.81q-8.73.26-17.32.12c-.38.7-.78,1.4-1.21,2.08a44.06,44.06,0,0,1-3.48,4.78Q847.52,1828.86,855,1830Zm16.53,2.11q1.26-1.59,2.7-3.15c2.91-3.2,6-6.14,8.54-9.58q-7.8.63-15.53.94a36,36,0,0,1-2.38,4.45,47.3,47.3,0,0,1-4.5,6Q866,1831.48,871.56,1832.08Zm22.07,1.83a42.71,42.71,0,0,1,7.06-9.88c2.26-2.49,4.6-4.82,6.74-7.34q-9.46,1.29-18.88,2.17l-.18.3c-3.1,5-7,8.64-10.88,12.89l-.52.57C882.54,1833.15,888.11,1833.58,893.63,1833.91Zm27.72,1c.21-.79.44-1.57.71-2.34,1.87-5.49,4.86-9.64,8.69-13.83,2.19-2.42,4.46-4.68,6.55-7.12q-11.73,2.42-23.51,4.2c-2.91,4.21-6.41,7.57-9.87,11.36a42.69,42.69,0,0,0-5.37,7C906.31,1834.59,914,1834.8,921.35,1834.87Zm31.59-.62a40.1,40.1,0,0,1,2-10.51c1.88-5.49,4.87-9.64,8.69-13.83,1.89-2.07,3.82-4,5.65-6.07q-12.51,3.51-25.19,6.3c-2.95,4.36-6.53,7.79-10.08,11.67-3.38,3.72-6.08,7.36-7.74,12.23-.1.28-.19.57-.28.86,8.76,0,17.15-.19,24.94-.55Zm38.17-3.29a42.12,42.12,0,0,1,2.06-13.46c1.85-5.45,4.83-9.56,8.62-13.72,3.61-4,7.41-7.51,10.29-12.13.56-.9,1.07-1.81,1.53-2.74-12.05,4.77-24.4,9-36.91,12.77-2.91,4.21-6.4,7.56-9.86,11.35s-6.08,7.35-7.74,12.22a34.86,34.86,0,0,0-1.7,8.76C968.21,1833.38,979.56,1832.39,991.11,1831Zm36.83-6.15c-.77-7.07-.69-14.51,1.61-21.25,1.86-5.45,4.83-9.56,8.62-13.72,3.61-4,7.41-7.52,10.29-12.13a33.41,33.41,0,0,0,2.93-5.94c-10.36,5.35-21.06,10.29-32,14.81a38,38,0,0,1-3.6,7.51c-3.07,4.92-6.95,8.58-10.78,12.79-3.36,3.68-6,7.29-7.68,12.12a36.83,36.83,0,0,0-1.8,11.39C1006.29,1829,1017.19,1827.11,1027.94,1824.81Zm57.85-18.73c-2.52-8.12-4.16-16.92-2.91-25.41,1-6.59,3.46-11.91,6.89-17.47,3.26-5.3,6.82-10.18,9.12-16a38.94,38.94,0,0,0,1.81-6.07,346.4,346.4,0,0,1-43.82,27.79,38.27,38.27,0,0,1-4.72,11.28c-3.06,4.92-6.94,8.58-10.78,12.78-3.35,3.69-6,7.3-7.68,12.12-2,5.92-2.09,12.56-1.44,18.81C1051.23,1819.56,1069.6,1813.76,1085.79,1806.08ZM1137,1708.7a267.78,267.78,0,0,1-30.5,28,44.89,44.89,0,0,1-2.88,12.45c-2.45,6.26-6.08,11.27-9.54,16.89-3,4.93-5.31,9.62-6.17,15.46-1.08,7.4.37,15.22,2.53,22.36l1.9-1c28.43-15,43.93-43.88,45.5-75.39A97.8,97.8,0,0,0,1137,1708.7Zm-32.15-36.52c1.24,9.59,1.36,19.82-1.87,29-2.43,6.92-6.32,12.14-11.28,17.42s-9.87,9.75-13.72,15.74a46,46,0,0,0-6.71,18.67c23.9-14.59,45.22-31.57,62.6-50.69l1.57-1.73a68.86,68.86,0,0,0-3.68-11c-3-7-8.36-15.27-16-17.77A17,17,0,0,0,1104.83,1672.18Zm-40.47,23.75c1,8.65,1,17.79-1.91,26-2.28,6.51-5.94,11.42-10.6,16.39-4.51,4.81-9.25,9.12-12.85,14.73a44.57,44.57,0,0,0-6.63,20.62,383.54,383.54,0,0,0,34.13-17.82,52,52,0,0,1,7.76-23.9c4-6.3,9.17-11,14.22-16.37,4.52-4.83,8.11-9.56,10.33-15.88,2.84-8.1,2.82-17.22,1.82-25.73-.79.42-1.56.87-2.31,1.33Q1081.52,1685.79,1064.36,1695.93Zm-37.7,21.58.12.84c1.11,8.18,1.3,17-1.48,24.85-2,5.77-5.26,10.12-9.39,14.52-4,4.23-8.12,8-11.28,13a38.17,38.17,0,0,0-5.68,16.74q14.71-5.33,28.86-11.63c.5-9,2.56-17.37,7.49-25,3.79-5.91,8.6-10.32,13.34-15.37,4.23-4.51,7.59-8.93,9.66-14.83,2.45-7,2.62-14.76,1.9-22.16Q1043.56,1708.12,1026.66,1717.51Zm-33.76,18.16a47.48,47.48,0,0,1-2.09,18.72c-2,5.77-5.27,10.12-9.4,14.53-4,4.22-8.12,8-11.28,12.94a38.15,38.15,0,0,0-5.64,16.45c10.07-2.75,20.06-5.85,29.89-9.28a43.79,43.79,0,0,1,6.54-20.74c3.36-5.22,7.6-9.11,11.78-13.57,3.7-4,6.64-7.81,8.46-13,2.42-6.91,2.29-14.74,1.37-22Q1007.8,1727.89,992.9,1735.67Zm-35.61,17.92a39.91,39.91,0,0,1-2,13.08c-1.86,5.29-4.83,9.29-8.62,13.33-3.61,3.86-7.41,7.31-10.29,11.8a34.25,34.25,0,0,0-5,14.26c9.58-1.86,19.15-4,28.64-6.53a43.35,43.35,0,0,1,6.49-20c3.35-5.22,7.59-9.1,11.78-13.57,3.69-3.94,6.64-7.81,8.45-13a41.46,41.46,0,0,0,2-15Q973,1746,957.29,1753.59Zm-31.93,14.91c-.12,8.17-2.6,14.85-9.15,21.83-3,3.23-6.23,6.15-8.65,9.92a27.73,27.73,0,0,0-3.95,10.29q11.57-1.5,23.16-3.63a39.28,39.28,0,0,1,5.86-17.48c3.07-4.79,7-8.34,10.78-12.43,3.36-3.58,6-7.09,7.68-11.78a34,34,0,0,0,1.75-9.48l-4.25,2Q937.06,1763.25,925.36,1768.5Zm-26.7,11.44c-.52,5.67-2.67,10.52-7.39,15.56-2.44,2.59-5,5-7,8a22.79,22.79,0,0,0-3.33,9.41q9-.69,18.09-1.77a32.74,32.74,0,0,1,4.8-13.24c2.6-4.06,5.89-7.07,9.14-10.55a27.16,27.16,0,0,0,6.42-9.84,27.57,27.57,0,0,0,1.4-7Q909.81,1775.38,898.66,1779.94Zm-24.76,9.61a22.34,22.34,0,0,1-6.17,11.51,49.54,49.54,0,0,0-6,6.82,18.45,18.45,0,0,0-2.48,6.07q8.55-.2,17.21-.75a27.64,27.64,0,0,1,4.1-12.11c2.13-3.31,4.8-5.76,7.46-8.6a21.5,21.5,0,0,0,5.89-10.64Q884,1785.86,873.9,1789.55Zm-26.49,9a17.22,17.22,0,0,1-4.41,7.56c-2.76,2.95-4.65,4.73-5.64,7.64,5.75.22,11.57.29,17.43.23a23.13,23.13,0,0,1,3.28-8.51c1.85-2.87,4.15-5,6.45-7.45a19.73,19.73,0,0,0,4.34-6.68q-3.24,1.16-6.5,2.28C857.45,1795.34,852.46,1797,847.41,1798.58ZM800,1810.3a320.81,320.81,0,0,0,32.84,3.29,17.14,17.14,0,0,1,2.15-4.92,38.25,38.25,0,0,1,4.79-5.53,16.68,16.68,0,0,0,2.19-2.89A347,347,0,0,1,800,1810.3Zm-180.81-92.24c-23.3-3.11-42.69-1.4-43.3,3.81s17.79,12,41.09,15.06c12.73,1.69,24.3,2,32.27,1a10.22,10.22,0,0,1,1-7.92,12.46,12.46,0,0,1,2.95-3.38C645.82,1723.19,633.43,1720,619.21,1718.06Zm-68.67-15.28a67.28,67.28,0,0,0-6.31-3.8c-11.26-6-22-8-34.41-7.64a2.14,2.14,0,0,0-1.53.69,2.11,2.11,0,0,0-.57,1.58,2.17,2.17,0,0,0,2.22,2.07c11.63-.32,21.68,1.5,32.26,7.12a57.09,57.09,0,0,1,5.82,3.51c1.94,3.06,7.41,7.57,14.43,11.62a71.15,71.15,0,0,0,10.25,4.93,4.83,4.83,0,0,1,0-1.37c.27-2.31,1.92-4,4.44-5.26a68.88,68.88,0,0,0-9.91-6.83C560.53,1705.54,554.21,1703.11,550.54,1702.78Zm61.84,314.7c-3.89,29.2-1.74,53.49,4.78,54.25s15-22.28,18.86-51.48c2.13-16,2.45-30.43,1.25-40.42-3.61.84-7,.6-9.93-1.2a15.69,15.69,0,0,1-4.23-3.7C618.82,1984.16,614.75,1999.68,612.38,2017.48Zm-19.14,86a87.09,87.09,0,0,0-4.76,7.89c-7.5,14.11-10,27.59-9.57,43.11a2.72,2.72,0,0,0,2.85,2.64,2.71,2.71,0,0,0,2.58-2.78c-.39-14.57,1.89-27.16,8.93-40.41a73.81,73.81,0,0,1,4.4-7.3c3.83-2.42,9.47-9.29,14.55-18.08a88.75,88.75,0,0,0,6.18-12.83,6.52,6.52,0,0,1-1.71,0c-2.9-.34-5-2.4-6.6-5.57a89,89,0,0,0-8.56,12.42C596.7,2091,593.66,2098.92,593.24,2103.52ZM894.8,1718.06c23.31-3.11,42.7-1.4,43.31,3.81s-17.79,12-41.1,15.06c-12.73,1.69-24.29,2-32.26,1a10.31,10.31,0,0,0-1-7.92,12.67,12.67,0,0,0-3-3.38C868.2,1723.19,880.59,1720,894.8,1718.06Zm68.68-15.28a65.92,65.92,0,0,1,6.3-3.8c11.26-6,22-8,34.41-7.64a2.17,2.17,0,0,1,2.11,2.27,2.18,2.18,0,0,1-2.23,2.07c-11.62-.32-21.67,1.5-32.25,7.12a57.09,57.09,0,0,0-5.82,3.51c-1.94,3.06-7.42,7.57-14.44,11.62a71.08,71.08,0,0,1-10.24,4.93,5.69,5.69,0,0,0,0-1.37c-.27-2.31-1.92-4-4.45-5.26a69.45,69.45,0,0,1,9.91-6.83C953.49,1705.54,959.81,1703.11,963.48,1702.78Zm-61.85,314.7c3.89,29.2,1.75,53.49-4.78,54.25s-15-22.28-18.86-51.48c-2.12-16-2.45-30.43-1.24-40.42,3.6.84,7,.6,9.92-1.2a15.73,15.73,0,0,0,4.24-3.7C895.2,1984.16,899.27,1999.68,901.63,2017.48Zm19.14,86a85.05,85.05,0,0,1,4.77,7.89c7.5,14.11,10,27.59,9.56,43.11a2.72,2.72,0,0,1-2.84,2.64,2.72,2.72,0,0,1-2.59-2.78c.39-14.57-1.88-27.16-8.93-40.41a73.79,73.79,0,0,0-4.39-7.3c-3.83-2.42-9.48-9.29-14.56-18.08a89.67,89.67,0,0,1-6.17-12.83,6.51,6.51,0,0,0,1.71,0c2.9-.34,5-2.4,6.59-5.57a87.27,87.27,0,0,1,8.56,12.42C917.31,2091,920.35,2098.92,920.77,2103.52Zm125.79-221c6.06-5.09,10.2-12.27,13.3-19.46a13.69,13.69,0,0,1,7.77,4.25c4.28,4.88,4.56,12.89,3.8,19a55.65,55.65,0,0,1-2,9.22l-1.81.56c-20,6.14-41.89,9.16-64.57,9.46a37.2,37.2,0,0,1,12.39-10.24c5.16-2.59,10.58-3.71,16.07-5.3S1042,1886.31,1046.56,1882.5Zm-36.82-2.26c5.44-4.57,9.24-10.92,12.11-17.37q16.12,0,32.16-.31,1.08,0,2.16,0c-2.82,6.34-6.56,12.7-11.9,17.18-4.15,3.48-8.61,5.29-13.76,6.79-5.74,1.67-11.25,2.82-16.67,5.54a42,42,0,0,0-15.29,13.45,309.84,309.84,0,0,1-31.15-1.69,36.11,36.11,0,0,1,13.15-11.62c4.83-2.43,9.9-3.47,15-5C1000.89,1885.74,1005.47,1883.83,1009.74,1880.24ZM986.39,1863l.27-.64q15.65.45,31.28.52c-2.56,5.45-5.89,10.81-10.48,14.66-3.89,3.26-8.06,5-12.86,6.34-5.39,1.57-10.57,2.65-15.65,5.2-6.61,3.32-11.51,8.31-15.57,14.37q-12.45-1.44-24.92-3.82a30.93,30.93,0,0,1,10.87-9.32c4.24-2.13,8.7-3,13.21-4.36a32.7,32.7,0,0,0,12.55-6.24C980.28,1875.32,983.79,1869.13,986.39,1863Zm-40,10.25a38.34,38.34,0,0,0,9.2-12.18q13.59.74,27.21,1.17c-2.33,5.41-5.48,10.92-10,14.74a29.16,29.16,0,0,1-11.25,5.55c-4.76,1.38-9.33,2.34-13.82,4.59a35.47,35.47,0,0,0-13.13,11.75q-5.29-1.06-10.57-2.3c-2.88-3.43-5.73-6.59-8.49-9.41a28.43,28.43,0,0,1,5.12-3.31c4.24-2.13,8.71-3,13.22-4.36A32.45,32.45,0,0,0,946.42,1873.22Zm49,75.6c1.45-5.87,3.67-11.91,7.48-16.63a32.09,32.09,0,0,1,10.68-8.22c4.74-2.49,9.34-4.48,13.63-7.83a36.4,36.4,0,0,0,7.15-7.49,216.31,216.31,0,0,0,32.81-6.88,79.3,79.3,0,0,1-7.15,13.4c-14.12,21.31-36.86,35-62.86,33.75Zm-46.81-14a31.57,31.57,0,0,1,6.77-8.58,27.31,27.31,0,0,1,10.36-5.27c4.41-1.35,8.62-2.29,12.79-4.45a31.07,31.07,0,0,0,8-5.91,281.06,281.06,0,0,0,42-1.27,30.55,30.55,0,0,1-3.77,3.48c-4,3.15-8.52,5.07-13,7.42-4.69,2.46-8.63,5.13-12,9.33-4.38,5.4-6.87,12.21-8.47,18.91a205,205,0,0,1-41.07-8.6A35.54,35.54,0,0,0,948.62,1934.83Zm-21.86-3.22c-2.85-1.13-5.66-2.29-8.45-3.47a37.52,37.52,0,0,1,2.26-3.29C922.66,1927.26,924.74,1929.53,926.76,1931.61Zm10.92-16.84a51.19,51.19,0,0,0,9.74-3.56,30.07,30.07,0,0,0,5.62-3.75c9.5,1.38,19,2.35,28.42,2.9a27.06,27.06,0,0,1-4.48,2.94c-3.92,2-8,2.93-12.19,4.2a30.77,30.77,0,0,0-11.67,6,32.87,32.87,0,0,0-6.24,7.3A128,128,0,0,0,937.68,1914.77Zm-8.27-11.55q9.3,2,18.65,3.48c-.71.46-1.44.88-2.2,1.28a54.67,54.67,0,0,1-10.3,3.64c-1.88-2.7-3.9-5.47-6-8.26Zm-34.36,6.28a26.88,26.88,0,0,1,9.9-5.14c2.43,3.65,5.14,7.44,8.09,11.28,1.72,2.23,3.45,4.39,5.17,6.45a41.33,41.33,0,0,0-3.21,4.62c-8.64-3.77-17-7.78-24.76-11.8A28.93,28.93,0,0,1,895.05,1909.5ZM879,1896.73c4.08-1.24,8-2.15,11.85-4q4.32,1.41,8.67,2.73,1.57,2.76,3.43,5.7a29.42,29.42,0,0,0-10.16,5.52,32.58,32.58,0,0,0-5.71,6.51l-1.47-.77c-5.57-3-11.5-6.3-17.6-9.92l.55-.49A27.61,27.61,0,0,1,879,1896.73Zm-23.15-8.7c4-1.22,7.8-2.11,11.58-3.85q8.93,3.63,18.12,6.8c-2.47.83-5,1.47-7.51,2.24a31.22,31.22,0,0,0-11.77,6c-.51.43-1,.88-1.47,1.34-5.13-3.1-10.36-6.41-15.61-9.89A34.11,34.11,0,0,1,855.81,1888Zm-20.45-7.51c4.45-1.35,8.7-2.31,12.91-4.49l.25-.13q6.91,3.28,14.05,6.29c-2.53.88-5.12,1.53-7.73,2.33a34.9,34.9,0,0,0-9,4q-5.57-3.77-11.08-7.78Zm-6.73-13.88c-3.28-1.36-6.23-2.62-8.68-3.69q-.27,2.92-.64,5.82l1.26,1A41.89,41.89,0,0,0,828,1867Zm7.15,2.9-3-1.21a30.2,30.2,0,0,1-3.17,1.9,38.81,38.81,0,0,1-5.61,2.31q3.57,2.82,7.23,5.55c1-.39,2.08-.74,3.18-1.08,3.35-1,6.69-1.81,9.91-3.14Q840,1871.76,835.78,1869.54ZM880.41,1883c-.8-.11-1.61-.23-2.43-.37l2.11.78Zm19.31-8.66a9.21,9.21,0,0,1-1.24,4.81c-1.94,3.58-7,4.71-13.83,4.28q-.54.61-1,1.26,6.14,2.19,12.36,4.18c-.47-1-.9-1.94-1.29-2.86a11.11,11.11,0,0,0,6.9-5.18,13.56,13.56,0,0,0,1.56-4.6,83.61,83.61,0,0,1,9.88,8.41,31.85,31.85,0,0,1,6-3.95c4.5-2.26,9.06-3.21,13.82-4.6a29.09,29.09,0,0,0,11.25-5.55,33.38,33.38,0,0,0,7.58-9.67q-14.19-.83-28.31-2a32.68,32.68,0,0,1-6.84,8.27,30,30,0,0,1-11.51,5.73C903.26,1873.34,901.48,1873.79,899.72,1874.29ZM889,1862.87c4.85,2.47,8.2,5.12,9.75,8,1.74-.5,3.51-.95,5.31-1.47a26.61,26.61,0,0,0,10.22-5,27.38,27.38,0,0,0,5.14-5.89l-3.8-.34q-10.3-.95-20.63-2.12A24.74,24.74,0,0,1,889,1862.87Zm-19.64-7.24a134.07,134.07,0,0,1,16,5.53,17.23,17.23,0,0,0,1.81-1.34,22.77,22.77,0,0,0,3.86-4.27q-9.69-1.17-19.35-2.59A20.37,20.37,0,0,1,869.35,1855.63Zm-20.05-5.05c5.68,1.28,11,2.57,15.89,3.89a14.66,14.66,0,0,0,2.38-2.13q-8.6-1.33-17.15-2.92C850.06,1849.83,849.69,1850.21,849.3,1850.58Zm-22.37-4.7c6.23,1.24,12.2,2.47,17.86,3.7a12.33,12.33,0,0,0,1.36-1c-1.82-.36-3.64-.72-5.47-1.1q-6.18-1.27-12.46-2.74A11.43,11.43,0,0,1,826.93,1845.88Zm-6.26-3c0,.59,0,1.17,0,1.75l.49.1a12.73,12.73,0,0,0,2.57-1.07ZM467.45,1882.5c-6.05-5.09-10.2-12.27-13.3-19.46a13.75,13.75,0,0,0-7.77,4.25c-4.28,4.88-4.56,12.89-3.79,19a55.62,55.62,0,0,0,2,9.22l1.81.56c20,6.14,41.89,9.16,64.57,9.46a37.2,37.2,0,0,0-12.39-10.24c-5.16-2.59-10.58-3.71-16.06-5.3C476.87,1888.34,472,1886.31,467.45,1882.5Zm36.82-2.26c-5.44-4.57-9.24-10.92-12.1-17.37q-16.12,0-32.17-.31c-.71,0-1.44,0-2.16,0,2.82,6.34,6.57,12.7,11.9,17.18,4.16,3.48,8.62,5.29,13.76,6.79,5.74,1.67,11.26,2.82,16.67,5.54a42,42,0,0,1,15.29,13.45,309.84,309.84,0,0,0,31.15-1.69,36.08,36.08,0,0,0-13.14-11.62c-4.83-2.43-9.91-3.47-15.05-5C513.12,1885.74,508.55,1883.83,504.27,1880.24ZM527.63,1863l-.27-.64q-15.65.45-31.28.52c2.55,5.45,5.89,10.81,10.48,14.66,3.88,3.26,8.05,5,12.86,6.34,5.39,1.57,10.56,2.65,15.64,5.2,6.61,3.32,11.51,8.31,15.58,14.37q12.45-1.44,24.91-3.82a30.93,30.93,0,0,0-10.87-9.32c-4.23-2.13-8.7-3-13.21-4.36a32.7,32.7,0,0,1-12.55-6.24C533.73,1875.32,530.23,1869.13,527.63,1863Zm40,10.25a38.48,38.48,0,0,1-9.2-12.18q-13.59.74-27.21,1.17c2.34,5.41,5.48,10.92,10,14.74a29.23,29.23,0,0,0,11.25,5.55c4.77,1.38,9.33,2.34,13.82,4.59a35.47,35.47,0,0,1,13.13,11.75q5.3-1.06,10.57-2.3c2.88-3.43,5.74-6.59,8.49-9.41a28.08,28.08,0,0,0-5.12-3.31c-4.24-2.13-8.71-3-13.21-4.36A32.42,32.42,0,0,1,567.59,1873.22Zm-49,75.6c-1.44-5.87-3.66-11.91-7.48-16.63a32.09,32.09,0,0,0-10.68-8.22c-4.73-2.49-9.34-4.48-13.63-7.83a36.4,36.4,0,0,1-7.15-7.49,216.57,216.57,0,0,1-32.81-6.88,78.63,78.63,0,0,0,7.16,13.4c14.11,21.31,36.85,35,62.86,33.75Zm46.82-14a31.77,31.77,0,0,0-6.77-8.58,27.39,27.39,0,0,0-10.36-5.27c-4.42-1.35-8.63-2.29-12.8-4.45a31.07,31.07,0,0,1-8-5.91,281.06,281.06,0,0,1-42-1.27,30.55,30.55,0,0,0,3.77,3.48c4,3.15,8.53,5.07,13,7.42,4.68,2.46,8.63,5.13,12,9.33,4.37,5.4,6.86,12.21,8.46,18.91a205.78,205.78,0,0,0,41.08-8.59A34,34,0,0,1,565.4,1934.83Zm21.86-3.22q4.26-1.69,8.45-3.47a35.56,35.56,0,0,0-2.27-3.29C591.35,1927.26,589.28,1929.53,587.26,1931.61Zm-10.93-16.84a51.44,51.44,0,0,1-9.74-3.56,30.32,30.32,0,0,1-5.61-3.75c-9.51,1.38-19,2.35-28.43,2.9a26.74,26.74,0,0,0,4.49,2.94c3.91,2,8,2.93,12.18,4.2a30.89,30.89,0,0,1,11.68,6,33.09,33.09,0,0,1,6.23,7.3A129.27,129.27,0,0,1,576.33,1914.77Zm8.28-11.55c-6.2,1.32-12.43,2.49-18.65,3.48a24.82,24.82,0,0,0,2.2,1.28,54.43,54.43,0,0,0,10.3,3.64c1.87-2.7,3.89-5.47,6-8.26ZM619,1909.5a26.92,26.92,0,0,0-9.91-5.14c-2.43,3.65-5.14,7.45-8.09,11.28-1.72,2.23-3.45,4.39-5.17,6.45a40,40,0,0,1,3.21,4.62c8.64-3.77,17-7.78,24.76-11.8A28.53,28.53,0,0,0,619,1909.5Zm16.08-12.77c-4.07-1.24-8-2.15-11.85-4q-4.31,1.41-8.67,2.73c-1,1.84-2.19,3.74-3.42,5.7a29.38,29.38,0,0,1,10.15,5.52,32.27,32.27,0,0,1,5.71,6.51l1.47-.77c5.58-3,11.5-6.3,17.61-9.92l-.55-.49A27.65,27.65,0,0,0,635.05,1896.73Zm23.15-8.7c-4-1.22-7.8-2.11-11.57-3.85q-8.94,3.63-18.12,6.8c2.46.83,5,1.47,7.51,2.24a31.22,31.22,0,0,1,11.77,6c.5.43,1,.88,1.46,1.34,5.13-3.1,10.37-6.41,15.61-9.89A33.86,33.86,0,0,0,658.2,1888Zm20.45-7.51c-4.45-1.35-8.7-2.31-12.91-4.49l-.24-.13q-6.93,3.28-14.06,6.29c2.54.88,5.12,1.53,7.73,2.33a34.57,34.57,0,0,1,9,4c3.71-2.51,7.42-5.11,11.08-7.78Zm14.17-35.76.49-.1,0-1.75-3.09.78A13,13,0,0,0,692.82,1844.76Zm-23.59,4.82c5.65-1.23,11.63-2.46,17.85-3.7a11.43,11.43,0,0,1-1.29-1.11q-6.27,1.47-12.46,2.74c-1.82.38-3.64.74-5.47,1.1A12.46,12.46,0,0,0,669.23,1849.58Zm-20.41,4.89c4.9-1.32,10.21-2.61,15.89-3.89a15.2,15.2,0,0,1-1.11-1.16q-8.55,1.59-17.16,2.92A15.09,15.09,0,0,0,648.82,1854.47Zm-20.13,6.69a134.28,134.28,0,0,1,16-5.53,20.44,20.44,0,0,1-2.3-2.67q-9.66,1.43-19.34,2.58a22.48,22.48,0,0,0,3.85,4.28A17.23,17.23,0,0,0,628.69,1861.16Zm-13.42,9.71c1.55-2.88,4.9-5.53,9.75-8a24.74,24.74,0,0,1-6-6.86c-6.87.79-13.76,1.49-20.62,2.12l-3.8.34a27.34,27.34,0,0,0,5.13,5.89,26.68,26.68,0,0,0,10.22,5C611.76,1869.92,613.53,1870.37,615.27,1870.87Zm14.1,12.51c-6.8.43-11.89-.7-13.83-4.28a9.12,9.12,0,0,1-1.24-4.81c-1.76-.5-3.54-1-5.33-1.47a30,30,0,0,1-11.52-5.73,32.68,32.68,0,0,1-6.84-8.27q-14.1,1.17-28.31,2a33.38,33.38,0,0,0,7.58,9.67,29.16,29.16,0,0,0,11.25,5.55c4.76,1.39,9.33,2.34,13.82,4.6a31.53,31.53,0,0,1,6,3.95,84.42,84.42,0,0,1,9.88-8.41,13.58,13.58,0,0,0,1.57,4.6,11.06,11.06,0,0,0,6.9,5.18c-.39.92-.83,1.87-1.3,2.86q6.23-2,12.36-4.18C630.07,1884.21,629.72,1883.79,629.37,1883.38Zm6.67-.8c-.83.14-1.64.26-2.43.37l.31.41Zm45.2-14.25-3,1.21q-4.22,2.22-8.53,4.33c3.22,1.33,6.55,2.12,9.91,3.14,1.09.34,2.15.69,3.18,1.08,2.43-1.82,4.85-3.67,7.23-5.55a38.35,38.35,0,0,1-5.61-2.31A30.35,30.35,0,0,1,681.24,1868.33Zm13.47.44q-.37-2.89-.65-5.82c-2.45,1.07-5.39,2.33-8.67,3.69l.61.33a41.51,41.51,0,0,0,7.44,2.83Zm132.73,60.8c25.64,55.66,22,141.68-10.82,188.79h0c-12.57,18-29.81,30.91-52.13,33.28l-7.5,23.41-7.51-23.41c-22.26-2.37-39.6-15.3-52.13-33.28h0c-32.85-47.11-36.46-133.13-10.82-188.79-18.2,22.89-45.25,52.86-57.1,45.59-18.68-11.46,17-44.15,66.66-87l6.6,13.54a138.16,138.16,0,0,1-6.44-23c-36.95,29.54-87.46,57-133.12,70.51.22.12.44.23.67.33a75.92,75.92,0,0,1-10.16,6.92c-7.58,4.38-14.77,7.08-18.68,7.24a62.2,62.2,0,0,0-6.43,3.55c-11,6.87-18.12,15.3-24.11,26.36a2.35,2.35,0,0,1-3.14,1,2.34,2.34,0,0,1-1-3.2c6.4-11.78,14.06-20.79,25.76-28.09a73.21,73.21,0,0,1,7-3.85,24.57,24.57,0,0,1,3.72-4,162.77,162.77,0,0,1-19.49,2.24c-76.27,3.82-112.41-105.07-57.11-103.92,54.27,1.14,146.32-.6,216.66-16-80,15.77-195.82,8.57-260.21-25.37-83.37-43.94-53.2-182.3,4.79-146.27,66.07,41.06,188.63,110.06,279.48,130.49q1.4-4.25,3.06-8.25c-14.63-10.67-58.61-44.21-51-56.68,8.16-13.3,29.81,7.92,58.69,40.81a128.13,128.13,0,0,1-.51-22.34,19.32,19.32,0,0,1,8.56-36.38,63.9,63.9,0,0,1,6.93-11.8c-9.95-10.55-22.91-24.36-27.35-39.36-3.26-11,5.09-25.3,5.3-32.9.09-3.44,1.47-4.87,2.09.73,1.21,10.9-5,20.77-2.17,28.28,6.58,17.59,21.37,26.65,30.41,34.68a35.69,35.69,0,0,1,44.11,0c9.05-8,23.83-17.09,30.42-34.68,2.82-7.51-3.38-17.38-2.18-28.28.62-5.6,2-4.17,2.1-.73.21,7.6,8.55,21.89,5.29,32.9-4.44,15-17.39,28.81-27.34,39.36a63.31,63.31,0,0,1,6.92,11.8,19.32,19.32,0,0,1,8.56,36.38,128.13,128.13,0,0,1-.51,22.34c28.88-32.89,50.53-54.11,58.69-40.81,7.66,12.47-36.33,46-51,56.68q1.66,4,3.07,8.25c90.84-20.43,213.41-89.43,279.48-130.49,58-36,88.15,102.33,4.78,146.27-64.39,33.94-180.19,41.14-260.22,25.37,70.34,15.39,162.4,17.13,216.67,16,55.3-1.15,19.16,107.74-57.1,103.92a162.7,162.7,0,0,1-19.5-2.24,24.25,24.25,0,0,1,3.73,4,75.76,75.76,0,0,1,7,3.85c11.69,7.3,19.36,16.31,25.75,28.09a2.24,2.24,0,0,1,.18,1.81,2.22,2.22,0,0,1-1.17,1.39,2.33,2.33,0,0,1-3.13-1c-6-11.06-13.13-19.49-24.12-26.36a61.18,61.18,0,0,0-6.43-3.55c-3.91-.16-11.09-2.86-18.68-7.24a76.57,76.57,0,0,1-10.16-6.92,5.94,5.94,0,0,0,.67-.33c-45.66-13.46-96.17-41-133.12-70.51a137.2,137.2,0,0,1-6.44,23l6.6-13.54c49.68,42.89,85.34,75.58,66.66,87C872.69,1982.43,845.64,1952.46,827.44,1929.57Z"/><path class="cls-2" d="M697.37,2118.36a433.65,433.65,0,0,0,119.27,0,136.24,136.24,0,0,0,16.61-33.55,401.77,401.77,0,0,1-152.48,0,136.22,136.22,0,0,0,16.6,33.55"/><path class="cls-3" d="M672.66,2052a370.44,370.44,0,0,0,168.69,0,237,237,0,0,0,2.9-32,339.51,339.51,0,0,1-174.48,0,235.36,235.36,0,0,0,2.89,32"/><path class="cls-2" d="M671.07,1988.81a308.79,308.79,0,0,0,171.88,0,217.64,217.64,0,0,0-5.34-30.1,278,278,0,0,1-161.2,0,214.7,214.7,0,0,0-5.34,30.1"/><path class="cls-3" d="M686.37,1930a247.58,247.58,0,0,0,141.27,0A116.05,116.05,0,0,0,811,1903.11a217.15,217.15,0,0,1-107.91,0A116.73,116.73,0,0,0,686.37,1930"/><path class="cls-2" d="M464.44,1680.87,757,1512l-156-90.09L264.16,1616.33v569.09L757,2470l104-60.06,52,30L757,2530,212.14,2215.45V1586.3L549,1391.84l-52-30L160.13,1556.27v689.21L757,2590.08l260.07-150.15-52-30-104-60.06L757,2409.9,316.17,2155.39v-509L601,1481.93l52,30L411.16,1651.57a49.71,49.71,0,0,1,15.53,6.51q18.66,11.6,37.75,22.79"/><path class="cls-2" d="M420.2,2095.33V1825.77q-4.21-2-8.23-4.09a103.22,103.22,0,0,1-43.78-44.31v348L757,2349.84l52-30Z"/><path class="cls-3" d="M1093.81,1825.77v269.56L809,2259.75l52,30,104,60.06,284.8-164.42V1616.33L757,1331.78l-52,30-52-30,104-60.06,544.86,314.58v629.15l-284.8,164.42,52,30,284.79-164.43V1556.27L757,1211.66,549,1331.78l52,30,104,60.06,52-30,440.83,254.51v509L965.06,2289.78l-52-30,232.78-134.39v-348a103.24,103.24,0,0,1-43.79,44.31q-4,2.11-8.23,4.09"/><path class="cls-3" d="M809,1542l240.55,138.88q19.08-11.17,37.75-22.79a49.81,49.81,0,0,1,15.53-6.51L861,1512Z"/><rect class="cls-4" width="5000" height="4000"/><text class="cls-5" transform="translate(1390.3 1958.71)">HIVE</text><text class="cls-6" transform="translate(2500 2349.84)">SPACE</text></svg>