<svg xmlns="http://www.w3.org/2000/svg" viewBox="0 0 5000 1748.82"><path d="M597.29,788.25a51,51,0,0,0-6.54-8.59c-4.2-4.61-8.45-8.69-12-13.82q-14.29-2.16-28.58-5.09c2.54,3,5.3,5.71,8,8.65,4.65,5.1,8.29,10.13,10.57,16.81.32.94.61,1.89.86,2.85,9-.07,18.29-.33,27.72-.81m26.26-1.89-.66-.74c-4.71-5.15-9.46-9.64-13.22-15.67l-.23-.36q-11.43-1.05-23-2.63c2.6,3.06,5.45,5.89,8.2,8.91a52.4,52.4,0,0,1,8.59,12C610,787.52,616.77,787,623.55,786.36Zm20.18-2.29a56.76,56.76,0,0,1-5.52-7.32,43.48,43.48,0,0,1-2.89-5.41q-9.41-.39-18.89-1.15c3.15,4.18,6.84,7.75,10.39,11.64,1.17,1.29,2.28,2.57,3.31,3.87Q637,785,643.73,784.07Zm24.55-4a53,53,0,0,1-4.28-5.87c-.52-.84-1-1.68-1.47-2.53q-10.46.16-21.06-.15c.39.74.82,1.48,1.27,2.2a62.13,62.13,0,0,0,7.5,9.4C656.32,782.25,662.35,781.24,668.28,780.1Zm45.85-12.37a406.77,406.77,0,0,1-45.4,3.82,57.14,57.14,0,0,0,5.68,7.32A280.3,280.3,0,0,0,714.13,767.73ZM666,746.82a18.71,18.71,0,0,0,2.75,3.66,46.79,46.79,0,0,1,5.82,6.73,20.75,20.75,0,0,1,2.61,6,389.12,389.12,0,0,0,40.13-4A421.81,421.81,0,0,1,666,746.82ZM633.33,736a23.75,23.75,0,0,0,5.32,8.28c2.81,3,5.6,5.56,7.85,9.05a28.37,28.37,0,0,1,4,10.35q10.68.1,21.19-.28c-1.21-3.54-3.5-5.7-6.86-9.29a21,21,0,0,1-5.39-9.32c-6-1.89-11.93-3.86-17.76-5.86Q637.49,737.51,633.33,736Zm-30.48-11.59c.9,4.6,3.09,8.73,7.19,13.1,3.23,3.45,6.48,6.43,9.06,10.46a33.41,33.41,0,0,1,5,14.72q10.53.69,20.93.91a22.36,22.36,0,0,0-3-7.38c-2-3.14-4.72-5.59-7.25-8.29-4.33-4.62-6.62-9.11-7.52-14.14Q615,729.31,602.85,724.43ZM570.2,710.64a33.11,33.11,0,0,0,1.71,8.65c1.67,4.76,4.39,8.32,7.8,12,4,4.22,7.95,7.89,11.12,12.83a39.7,39.7,0,0,1,5.83,16.09q11,1.32,22,2.15a27.89,27.89,0,0,0-4-11.44c-2.36-3.67-5.51-6.53-8.47-9.69-5.78-6.17-8.4-12.12-9-19.07Q583.58,716.57,570.2,710.64Zm-38.93-18a41.21,41.21,0,0,0,2.14,11.71c2,5.71,5.25,10,9.33,14.33,4.66,5,9.38,9.3,13.11,15.11A47.74,47.74,0,0,1,563,755.07q14.09,2.58,28.16,4.41A33.89,33.89,0,0,0,586.33,747c-2.94-4.58-6.83-8.12-10.52-12.06-8-8.53-11-16.69-11.13-26.71q-14-6.29-27.84-12.87ZM487.8,671a50.54,50.54,0,0,0,2.36,18.48c2.21,6.28,5.79,11,10.28,15.78,5.09,5.43,10.25,10.15,14.32,16.5,4.83,7.52,7.11,15.67,7.89,24.37Q540,750.64,557.47,754a41.62,41.62,0,0,0-6.12-17.33c-3.5-5.46-8.12-9.66-12.51-14.35-4.61-4.91-8.22-9.77-10.48-16.21a48.57,48.57,0,0,1-2.49-16.09Q506.76,680.78,487.8,671Zm-41.23-22c-1.14,8.83-1.32,18.43,1.65,26.9,2.21,6.28,5.78,11,10.28,15.77,5.09,5.43,10.25,10.16,14.32,16.51,5,7.76,7.25,16.19,8,25.21,12,4.17,24.09,7.93,36.34,11.28a46.29,46.29,0,0,0-6.86-20c-3.84-6-8.9-10.6-13.72-15.74-5-5.35-9-10.64-11.42-17.65-2.56-7.3-3.05-15.22-2.54-23Q464.49,658.82,446.57,648.94Zm-45.8-26.05c-.9,9.06-.71,18.6,2.29,27.15,2.52,7.18,6.61,12.55,11.75,18,5.76,6.14,11.61,11.5,16.21,18.68,6,9.33,8.5,19.52,9.11,30.46q17.17,7.66,35.09,14.13a46.64,46.64,0,0,0-6.9-20.35c-3.84-6-8.9-10.59-13.72-15.73-5-5.36-9-10.65-11.42-17.66-3.37-9.59-3.15-20.27-1.8-30.22l.17-1.22Q421,634.77,400.77,622.89Zm-49.15-29.58c-1.23,10.4-1.29,21.56,2.19,31.48,2.7,7.68,7.07,13.43,12.57,19.29,6.13,6.55,12.37,12.26,17.28,19.91,5.75,9,8.49,18.68,9.44,29.06a464.76,464.76,0,0,0,41.49,21.66c-.8-9-3.1-17.33-8.06-25.06-4.38-6.83-10.14-12.06-15.62-17.92-5.67-6-10.11-12-12.89-19.92-3.55-10.11-3.57-21.31-2.3-31.89q-20.66-12.2-40.92-24.8C353.77,594.48,352.71,593.87,351.62,593.31Zm-42,32.87,1.61,1.77c21.13,23.24,47.06,43.88,76.1,61.63a55.86,55.86,0,0,0-8.15-22.71c-4.68-7.29-10.82-12.88-16.68-19.13-6-6.43-10.76-12.77-13.71-21.18-3.94-11.24-3.78-23.73-2.26-35.42a20.42,20.42,0,0,0-12.91-.33c-9.26,3-15.75,13.15-19.43,21.6A84.22,84.22,0,0,0,309.6,626.18Zm54.47,124.94c2.6-8.64,4.32-18.07,3-27-1-7.1-3.8-12.8-7.49-18.79-4.21-6.84-8.62-12.93-11.6-20.54a54,54,0,0,1-3.49-15.14A324.55,324.55,0,0,1,307.74,636a119.29,119.29,0,0,0-1,22.41c1.9,38.31,20.75,73.44,55.31,91.66Zm70.67,24.47c.77-7.58.68-15.62-1.77-22.78-2-5.87-5.26-10.26-9.34-14.74-4.66-5.11-9.38-9.56-13.11-15.54a47,47,0,0,1-5.73-13.71A420.4,420.4,0,0,1,351.52,675a45.72,45.72,0,0,0,2.2,7.38c2.79,7.14,7.12,13.07,11.09,19.51,4.16,6.76,7.21,13.23,8.38,21.24,1.5,10.27-.46,20.9-3.5,30.73C389.35,763.26,411.67,770.34,434.74,775.59Zm44.65,8a44.87,44.87,0,0,0-2.18-13.8c-2-5.87-5.26-10.26-9.34-14.74-4.66-5.11-9.38-9.56-13.11-15.54a45.44,45.44,0,0,1-4.37-9.13c-13.32-5.5-26.33-11.51-38.92-18a39.28,39.28,0,0,0,3.55,7.22c3.5,5.61,8.13,9.94,12.51,14.75,4.61,5.06,8.23,10.06,10.49,16.68,2.78,8.17,2.9,17.18,2,25.76C453.05,779.56,466.3,781.8,479.39,783.56ZM525.74,788a42.6,42.6,0,0,0-2.07-10.63c-2-5.91-5.29-10.34-9.41-14.86s-8.44-8.68-12-13.79c-15.21-4.55-30.22-9.73-44.88-15.53.57,1.13,1.19,2.24,1.87,3.33,3.5,5.61,8.12,9.94,12.51,14.75,4.61,5.06,8.22,10.06,10.48,16.68a51,51,0,0,1,2.49,16.31C498.78,786,512.59,787.21,525.74,788Zm-7.55-29.28c4.65,5.1,8.29,10.14,10.57,16.82a48.64,48.64,0,0,1,2.4,12.75l2.88.14c9.35.43,19.4.67,29.92.67-.11-.35-.22-.7-.34-1-2-5.92-5.3-10.35-9.41-14.86-4.31-4.73-8.66-8.89-12.26-14.19q-15.39-3.4-30.62-7.67C513.55,753.82,515.9,756.2,518.19,758.71ZM864.78,778.8a56,56,0,0,0,5.62-7.25,410.67,410.67,0,0,1-44.77-3.72A282.23,282.23,0,0,0,864.78,778.8Zm24.16,4.3a61.36,61.36,0,0,0,7.44-9.35c.46-.72.88-1.46,1.28-2.2q-10.6.32-21.06.15c-.46.85-1,1.69-1.47,2.53A52.79,52.79,0,0,1,870.9,780Q879.81,781.75,888.94,783.1ZM909,785.66c1-1.29,2.12-2.56,3.28-3.83,3.54-3.89,7.24-7.46,10.39-11.64q-9.5.76-18.89,1.15a46.3,46.3,0,0,1-2.89,5.41,56.89,56.89,0,0,1-5.48,7.27Q902.22,784.94,909,785.66Zm26.83,2.24a52,52,0,0,1,8.58-12c2.75-3,5.59-5.85,8.2-8.91q-11.5,1.57-22.95,2.63l-.23.36c-3.76,6-8.52,10.52-13.22,15.67l-.63.71C922.38,787,929.15,787.49,935.86,787.9Zm33.7,1.16c.25-1,.54-1.91.86-2.85,2.28-6.68,5.92-11.71,10.57-16.81,2.67-2.94,5.43-5.69,8-8.65q-14.28,2.93-28.58,5.09c-3.55,5.13-7.8,9.21-12,13.82a51.83,51.83,0,0,0-6.53,8.57C951.27,788.71,960.56,789,969.56,789.06Zm38.41-.76a48.79,48.79,0,0,1,2.4-12.77c2.28-6.68,5.92-11.72,10.57-16.82,2.29-2.51,4.64-4.89,6.86-7.38q-15.21,4.26-30.62,7.67c-3.6,5.3-7.95,9.46-12.26,14.19-4.12,4.51-7.39,8.94-9.42,14.86-.11.34-.23.69-.33,1,10.65,0,20.85-.23,30.32-.67Zm46.41-4a51.22,51.22,0,0,1,2.5-16.36c2.26-6.62,5.87-11.62,10.48-16.68,4.39-4.81,9-9.14,12.51-14.75q1-1.63,1.86-3.33c-14.65,5.8-29.66,11-44.87,15.53-3.54,5.11-7.79,9.18-12,13.79s-7.4,9-9.41,14.86a42.31,42.31,0,0,0-2.07,10.65C1026.53,787.25,1040.34,786,1054.38,784.3Zm44.77-7.47c-.94-8.6-.83-17.64,2-25.84,2.25-6.62,5.87-11.62,10.48-16.68,4.38-4.81,9-9.14,12.51-14.75a40.59,40.59,0,0,0,3.55-7.22c-12.59,6.5-25.6,12.51-38.92,18a45.44,45.44,0,0,1-4.37,9.13c-3.73,6-8.45,10.43-13.11,15.54-4.08,4.48-7.34,8.87-9.34,14.74a44.94,44.94,0,0,0-2.18,13.85C1072.83,781.86,1086.08,779.63,1099.15,776.83Zm70.34-22.78c-3.06-9.87-5.06-20.56-3.55-30.89,1.17-8,4.22-14.48,8.38-21.24,4-6.44,8.3-12.37,11.09-19.51a45.72,45.72,0,0,0,2.2-7.38,420.4,420.4,0,0,1-53.27,33.79,46.71,46.71,0,0,1-5.74,13.71c-3.73,6-8.44,10.43-13.1,15.54-4.08,4.48-7.34,8.87-9.34,14.74-2.46,7.19-2.54,15.26-1.76,22.86C1127.47,770.44,1149.8,763.39,1169.49,754.05Zm62.24-118.39a324.71,324.71,0,0,1-37.1,34,53.65,53.65,0,0,1-3.5,15.14c-3,7.61-7.38,13.7-11.59,20.54-3.69,6-6.46,11.69-7.5,18.79-1.31,9,.45,18.5,3.07,27.18.78-.39,1.55-.8,2.32-1.2,34.56-18.22,53.41-53.35,55.31-91.66A119.85,119.85,0,0,0,1231.73,635.66Zm-39.09-44.39c1.5,11.65,1.65,24.09-2.28,35.29-2.95,8.41-7.68,14.75-13.71,21.18-5.86,6.25-12,11.84-16.68,19.13a56,56,0,0,0-8.16,22.71c29-17.75,55-38.39,76.11-61.63l1.91-2.11a83.65,83.65,0,0,0-4.48-13.43c-3.68-8.45-10.17-18.57-19.43-21.6A20.54,20.54,0,0,0,1192.64,591.27Zm-49.2,28.86c1.23,10.52,1.2,21.63-2.33,31.68-2.78,7.91-7.22,13.88-12.89,19.92-5.49,5.86-11.24,11.09-15.62,17.92-5,7.73-7.26,16.11-8.06,25.06A463.4,463.4,0,0,0,1146,693.05c1-10.38,3.68-20.09,9.44-29.06,4.91-7.65,11.15-13.36,17.28-19.91,5.5-5.86,9.87-11.61,12.56-19.29,3.46-9.86,3.43-20.94,2.22-31.29-1,.51-1.9,1-2.81,1.62Q1164.29,607.81,1143.44,620.13Zm-45.84,26.24.14,1c1.36,10,1.58,20.63-1.79,30.22-2.46,7-6.4,12.3-11.42,17.66-4.82,5.14-9.88,9.74-13.72,15.73a46.64,46.64,0,0,0-6.9,20.35q17.88-6.47,35.09-14.13c.6-10.94,3.11-21.13,9.11-30.46,4.6-7.18,10.45-12.54,16.21-18.68,5.14-5.49,9.23-10.86,11.74-18,3-8.48,3.19-17.94,2.32-26.93Q1118.15,635,1097.6,646.37Zm-41,22.08c.49,7.69,0,15.53-2.55,22.77-2.46,7-6.4,12.3-11.42,17.65-4.82,5.14-9.88,9.75-13.73,15.74a46.41,46.41,0,0,0-6.85,20c12.25-3.35,24.39-7.11,36.34-11.28.71-9,3-17.45,8-25.21,4.07-6.35,9.23-11.08,14.32-16.51,4.49-4.79,8.07-9.49,10.28-15.77,2.95-8.41,2.79-17.93,1.67-26.7Q1074.67,659,1056.56,668.45Zm-43.3,21.79a48.53,48.53,0,0,1-2.49,15.9c-2.26,6.44-5.87,11.3-10.48,16.21-4.39,4.69-9,8.89-12.51,14.35A41.48,41.48,0,0,0,981.66,754q17.48-3.39,34.82-7.94c.78-8.7,3.06-16.85,7.89-24.37,4.07-6.35,9.23-11.07,14.32-16.5,4.49-4.8,8.07-9.5,10.27-15.78a50.12,50.12,0,0,0,2.38-18.28Q1032.38,681,1013.26,690.24Zm-38.82,18.13c-.15,9.93-3.17,18-11.12,26.53-3.69,3.94-7.58,7.48-10.52,12.06A33.89,33.89,0,0,0,948,759.48q14.07-1.83,28.16-4.41a47.74,47.74,0,0,1,7.13-21.26c3.73-5.81,8.44-10.14,13.1-15.11,4.09-4.36,7.34-8.62,9.34-14.33a41,41,0,0,0,2.13-11.52l-5.17,2.47Q988.66,702,974.44,708.37ZM942,722.28c-.64,6.89-3.25,12.79-9,18.91-3,3.16-6.11,6-8.47,9.69a27.74,27.74,0,0,0-4,11.44q11-.83,22-2.15a40,40,0,0,1,5.83-16.09c3.18-4.94,7.17-8.61,11.13-12.83,3.41-3.64,6.13-7.2,7.8-12a33.52,33.52,0,0,0,1.7-8.47Q955.53,716.73,942,722.28ZM911.87,734c-.91,5-3.2,9.41-7.49,14-2.53,2.7-5.24,5.15-7.25,8.29a22.36,22.36,0,0,0-3,7.38q10.39-.23,20.93-.91A33.52,33.52,0,0,1,920,748c2.59-4,5.84-7,9.07-10.46,4-4.32,6.23-8.4,7.16-12.93Q924.12,729.46,911.87,734Zm-32.2,11a21.16,21.16,0,0,1-5.36,9.19c-3.36,3.59-5.65,5.75-6.86,9.29q10.5.39,21.19.28a28.2,28.2,0,0,1,4-10.35c2.24-3.49,5-6.07,7.85-9.05a23.91,23.91,0,0,0,5.26-8.13q-3.93,1.41-7.89,2.78Q888.9,742,879.67,744.94Zm-57.62,14.25a391.13,391.13,0,0,0,39.93,4,20.75,20.75,0,0,1,2.61-6,46.79,46.79,0,0,1,5.82-6.73,19.13,19.13,0,0,0,2.67-3.52A419.34,419.34,0,0,1,822.05,759.19ZM602.23,647c-28.33-3.77-51.91-1.7-52.65,4.64s21.63,14.53,50,18.3c15.48,2.06,29.54,2.38,39.23,1.21-.81-3.5-.58-6.79,1.17-9.63a15.11,15.11,0,0,1,3.59-4.11C634.58,653.28,619.51,649.34,602.23,647Zm-83.49-18.57a81.07,81.07,0,0,0-7.67-4.63c-13.68-7.28-26.76-9.68-41.83-9.28a2.63,2.63,0,0,0-2.56,2.76,2.64,2.64,0,0,0,2.7,2.51c14.14-.38,26.36,1.83,39.22,8.67a69.23,69.23,0,0,1,7.07,4.26c2.36,3.72,9,9.2,17.55,14.12a86.8,86.8,0,0,0,12.46,6,6.15,6.15,0,0,1,0-1.66c.33-2.82,2.33-4.89,5.4-6.4a84.35,84.35,0,0,0-12-8.31C530.88,631.82,523.2,628.87,518.74,628.47Zm75.18,382.6c-4.72,35.51-2.12,65,5.82,66s18.2-27.09,22.92-62.59c2.59-19.39,3-37,1.52-49.14-4.38,1-8.5.73-12.07-1.46a19.18,19.18,0,0,1-5.14-4.5C601.75,970.56,596.81,989.43,593.92,1011.07Zm-23.26,104.6a103,103,0,0,0-5.79,9.61c-9.12,17.14-12.13,33.53-11.63,52.4a3.3,3.3,0,0,0,3.46,3.21,3.3,3.3,0,0,0,3.14-3.38c-.48-17.72,2.29-33,10.86-49.13a86.36,86.36,0,0,1,5.34-8.87c4.65-3,11.52-11.29,17.69-22a107.34,107.34,0,0,0,7.51-15.61,7.61,7.61,0,0,1-2.08,0c-3.53-.41-6.13-2.91-8-6.77a105.19,105.19,0,0,0-10.41,15.1C574.86,1100.46,571.17,1110.08,570.66,1115.67ZM937.28,647c28.34-3.77,51.91-1.7,52.66,4.64s-21.63,14.53-50,18.3c-15.47,2.06-29.53,2.38-39.22,1.21.81-3.5.58-6.79-1.17-9.63a15.28,15.28,0,0,0-3.59-4.11C904.94,653.28,920,649.34,937.28,647Zm83.5-18.57a81.07,81.07,0,0,1,7.67-4.63c13.68-7.28,26.76-9.68,41.83-9.28a2.63,2.63,0,0,1,2.56,2.76,2.64,2.64,0,0,1-2.7,2.51c-14.14-.38-26.36,1.83-39.22,8.67a70.52,70.52,0,0,0-7.08,4.26c-2.35,3.72-9,9.2-17.54,14.12a86.8,86.8,0,0,1-12.46,6,6.15,6.15,0,0,0,0-1.66c-.33-2.82-2.33-4.89-5.4-6.4a84.35,84.35,0,0,1,12-8.31C1008.63,631.82,1016.32,628.87,1020.78,628.47Zm-75.19,382.6c4.73,35.51,2.12,65-5.81,66s-18.21-27.09-22.93-62.59c-2.58-19.39-3-37-1.51-49.14,4.38,1,8.5.73,12.07-1.46a19.18,19.18,0,0,0,5.14-4.5C937.77,970.56,942.71,989.43,945.59,1011.07Zm23.27,104.6a103,103,0,0,1,5.79,9.61c9.12,17.14,12.13,33.53,11.63,52.4a3.3,3.3,0,0,1-3.46,3.21,3.3,3.3,0,0,1-3.14-3.38c.48-17.72-2.29-33-10.86-49.13a86.36,86.36,0,0,0-5.34-8.87c-4.65-3-11.52-11.29-17.69-22a107.34,107.34,0,0,1-7.51-15.61,7.61,7.61,0,0,0,2.08,0c3.52-.41,6.13-2.91,8-6.77a106,106,0,0,1,10.41,15.1C964.66,1100.46,968.35,1110.08,968.86,1115.67ZM1121.79,847c7.37-6.18,12.41-14.91,16.17-23.65a16.65,16.65,0,0,1,9.45,5.17c5.2,5.93,5.54,15.67,4.62,23.08a68.47,68.47,0,0,1-2.43,11.21l-2.21.68c-24.32,7.47-50.92,11.14-78.5,11.51A45.34,45.34,0,0,1,1084,862.5c6.27-3.14,12.86-4.5,19.53-6.44C1110.34,854.07,1116.26,851.6,1121.79,847ZM1077,844.21c6.61-5.54,11.23-13.27,14.72-21.11q19.61,0,39.1-.38c.87,0,1.75,0,2.63,0-3.43,7.71-8,15.45-14.47,20.89-5,4.24-10.47,6.44-16.73,8.26-7,2-13.69,3.43-20.27,6.73A51.29,51.29,0,0,0,1063.42,875a376,376,0,0,1-37.86-2,43.89,43.89,0,0,1,16-14.14c5.88-2.94,12-4.22,18.29-6C1066.27,850.9,1071.83,848.58,1077,844.21Zm-28.39-21,.32-.78q19,.55,38,.64c-3.11,6.63-7.16,13.13-12.74,17.82-4.72,4-9.79,6-15.64,7.71-6.55,1.91-12.84,3.22-19,6.32-8,4-14,10.1-18.93,17.47-10.09-1.17-20.21-2.73-30.29-4.65a37.62,37.62,0,0,1,13.21-11.33c5.16-2.59,10.58-3.71,16.07-5.3,5.71-1.66,10.64-3.72,15.25-7.59C1041.21,838.24,1045.47,830.71,1048.64,823.22Zm-48.59,12.47a46.74,46.74,0,0,0,11.18-14.81q16.51.9,33.09,1.42c-2.85,6.58-6.67,13.27-12.2,17.92-4.13,3.46-8.57,5.26-13.68,6.74-5.79,1.68-11.34,2.85-16.8,5.59a43.05,43.05,0,0,0-16,14.28q-6.45-1.29-12.86-2.8c-3.5-4.17-7-8-10.32-11.44a34.08,34.08,0,0,1,6.23-4c5.15-2.58,10.58-3.7,16.06-5.3C990.51,841.62,995.44,839.56,1000.05,835.69Zm59.58,91.91c1.76-7.14,4.46-14.49,9.09-20.22,3.66-4.52,7.94-7.35,13-10,5.76-3,11.35-5.45,16.57-9.52a43.76,43.76,0,0,0,8.69-9.11,262.32,262.32,0,0,0,39.89-8.35,96,96,0,0,1-8.7,16.29c-17.15,25.91-44.8,42.61-76.42,41Zm-56.92-17a38.59,38.59,0,0,1,8.24-10.43c3.82-3.26,7.89-5,12.59-6.41,5.36-1.64,10.49-2.79,15.56-5.42a37.81,37.81,0,0,0,9.66-7.18,341.64,341.64,0,0,0,51.09-1.54,38.52,38.52,0,0,1-4.58,4.23c-4.9,3.83-10.37,6.17-15.79,9-5.7,3-10.49,6.24-14.62,11.34-5.32,6.57-8.35,14.85-10.29,23-16.18-1.5-33.12-5.27-49.94-10.45A41,41,0,0,0,1002.71,910.59Zm-26.57-3.92q-5.19-2.05-10.28-4.22a46.22,46.22,0,0,1,2.75-4C971.16,901.39,973.68,904.14,976.14,906.67Zm13.28-20.47a62.94,62.94,0,0,0,11.84-4.33,36.78,36.78,0,0,0,6.83-4.56c11.55,1.68,23.1,2.86,34.56,3.53a33.14,33.14,0,0,1-5.46,3.57c-4.76,2.46-9.76,3.57-14.81,5.11-5.31,1.62-9.89,3.61-14.2,7.29a40.07,40.07,0,0,0-7.57,8.88A156.75,156.75,0,0,0,989.42,886.2Zm-10.06-14.05q11.31,2.43,22.67,4.24c-.85.55-1.75,1.07-2.67,1.55-4,2.1-8.26,3.21-12.53,4.44-2.27-3.3-4.73-6.66-7.34-10Zm-41.78,7.65a32.64,32.64,0,0,1,12-6.26c3,4.44,6.24,9.05,9.83,13.71q3.15,4.08,6.29,7.85a48,48,0,0,0-3.9,5.62c-10.51-4.59-20.63-9.46-30.1-14.35A34.25,34.25,0,0,1,937.58,879.8ZM918,864.27c5-1.51,9.71-2.61,14.4-4.82q5.25,1.72,10.55,3.32c1.27,2.23,2.66,4.55,4.16,6.92a36,36,0,0,0-12.34,6.73,39.5,39.5,0,0,0-6.95,7.91l-1.78-.94c-6.78-3.61-14-7.65-21.41-12.06.22-.2.44-.4.67-.59C909.18,867.45,913.3,865.72,918,864.27Zm-28.15-10.58c4.84-1.48,9.49-2.57,14.08-4.68q10.86,4.41,22,8.26c-3,1-6.06,1.79-9.13,2.73-5.35,1.64-10,3.64-14.32,7.36-.61.52-1.2,1.06-1.78,1.63-6.23-3.78-12.6-7.8-19-12A41.36,41.36,0,0,1,889.88,853.69ZM865,844.56c5.41-1.65,10.58-2.81,15.7-5.46l.3-.16q8.41,4,17.09,7.65c-3.09,1.06-6.24,1.86-9.4,2.83a42.51,42.51,0,0,0-11,4.83q-6.76-4.57-13.47-9.46Zm-8.18-16.87c-4-1.66-7.57-3.19-10.55-4.5q-.33,3.57-.79,7.08l1.54,1.25a49,49,0,0,0,9.05-3.44Zm8.69,3.51-3.66-1.46a36.13,36.13,0,0,1-3.86,2.31,44.53,44.53,0,0,1-6.82,2.8q4.35,3.43,8.79,6.76c1.25-.48,2.54-.91,3.87-1.31,4.08-1.25,8.13-2.21,12-3.82Q870.65,833.9,865.53,831.2Zm54.26,16.31c-1-.13-2-.28-3-.45l2.57,1ZM943.26,837a11.07,11.07,0,0,1-1.51,5.85c-2.35,4.34-8.55,5.72-16.81,5.2-.43.5-.86,1-1.27,1.53q7.46,2.67,15,5.07c-.58-1.19-1.1-2.35-1.58-3.47,3.72-1.13,6.67-3.12,8.39-6.3a16.51,16.51,0,0,0,1.91-5.58,101.24,101.24,0,0,1,12,10.22,39.23,39.23,0,0,1,7.36-4.81c5.47-2.74,11-3.9,16.8-5.58,5.12-1.49,9.55-3.29,13.68-6.75a40.86,40.86,0,0,0,9.22-11.76q-17.26-1-34.42-2.44a39.61,39.61,0,0,1-8.32,10.06c-4.23,3.55-8.76,5.44-14,7C947.57,835.83,945.4,836.37,943.26,837Zm-13-13.89c5.9,3,10,6.22,11.86,9.73,2.12-.61,4.27-1.16,6.45-1.8,4.65-1.34,8.68-3,12.43-6.12a33.47,33.47,0,0,0,6.24-7.16l-4.62-.41q-12.52-1.14-25.07-2.57A30.31,30.31,0,0,1,930.22,823.1Zm-23.88-8.8A163.73,163.73,0,0,1,925.76,821a21.89,21.89,0,0,0,2.2-1.63,27.3,27.3,0,0,0,4.69-5.19q-11.77-1.43-23.52-3.15A25,25,0,0,1,906.34,814.3ZM882,808.16c6.9,1.56,13.37,3.13,19.32,4.73a18.31,18.31,0,0,0,2.89-2.59q-10.45-1.62-20.86-3.55Q882.68,807.49,882,808.16Zm-27.2-5.71c7.57,1.5,14.84,3,21.71,4.49a15.47,15.47,0,0,0,1.66-1.18c-2.22-.43-4.43-.87-6.65-1.33q-7.51-1.54-15.15-3.33A15.7,15.7,0,0,1,854.77,802.45Zm-7.61-3.61c0,.71,0,1.41,0,2.12l.59.12a15.93,15.93,0,0,0,3.13-1.29ZM417.73,847c-7.37-6.18-12.41-14.91-16.17-23.65a16.71,16.71,0,0,0-9.45,5.17c-5.21,5.93-5.55,15.67-4.62,23.08a68.47,68.47,0,0,0,2.43,11.21l2.2.68c24.33,7.47,50.93,11.14,78.5,11.51a45.21,45.21,0,0,0-15.06-12.46c-6.27-3.14-12.86-4.5-19.53-6.44C429.17,854.07,423.26,851.6,417.73,847Zm44.75-2.75c-6.61-5.54-11.22-13.27-14.71-21.11q-19.61,0-39.11-.38c-.86,0-1.74,0-2.62,0,3.43,7.71,8,15.45,14.47,20.89,5.05,4.24,10.47,6.44,16.73,8.26,7,2,13.68,3.43,20.27,6.73A51.26,51.26,0,0,1,476.09,875a376.06,376.06,0,0,0,37.87-2,43.92,43.92,0,0,0-16-14.14c-5.87-2.94-12-4.22-18.29-6C473.25,850.9,467.69,848.58,462.48,844.21Zm28.4-21-.32-.78q-19,.55-38,.64c3.12,6.63,7.17,13.13,12.75,17.82,4.72,4,9.79,6,15.63,7.71,6.56,1.91,12.85,3.22,19,6.32,8,4,14,10.1,18.93,17.47q15.14-1.75,30.29-4.65a37.62,37.62,0,0,0-13.21-11.33c-5.16-2.59-10.59-3.71-16.07-5.3-5.71-1.66-10.64-3.72-15.25-7.59C498.3,838.24,494.05,830.71,490.88,823.22Zm48.59,12.47a46.74,46.74,0,0,1-11.18-14.81q-16.51.9-33.09,1.42c2.85,6.58,6.67,13.27,12.2,17.91,4.13,3.47,8.56,5.27,13.68,6.75,5.79,1.68,11.34,2.85,16.8,5.59a43.05,43.05,0,0,1,16,14.28q6.45-1.29,12.85-2.8c3.51-4.16,7-8,10.33-11.44a34.43,34.43,0,0,0-6.23-4c-5.15-2.58-10.58-3.7-16.07-5.3C549,841.62,544.08,839.56,539.47,835.69ZM479.89,927.6c-1.76-7.14-4.46-14.49-9.09-20.22-3.66-4.52-7.95-7.35-13-10-5.76-3-11.35-5.45-16.57-9.52a44,44,0,0,1-8.69-9.1,263.68,263.68,0,0,1-39.9-8.36,96.73,96.73,0,0,0,8.71,16.29c17.15,25.91,44.8,42.61,76.42,41Zm56.92-17a38.59,38.59,0,0,0-8.24-10.43c-3.82-3.26-7.9-5-12.59-6.41-5.37-1.64-10.49-2.79-15.56-5.42a38,38,0,0,1-9.66-7.18,341.56,341.56,0,0,1-51.09-1.54,37.76,37.76,0,0,0,4.58,4.23c4.9,3.83,10.37,6.17,15.79,9,5.7,3,10.49,6.24,14.62,11.34,5.31,6.57,8.34,14.85,10.29,23,16.18-1.5,33.12-5.27,49.93-10.45A41.13,41.13,0,0,1,536.81,910.59Zm26.57-3.92q5.19-2.05,10.28-4.22a44.18,44.18,0,0,0-2.76-4C568.36,901.39,565.83,904.14,563.38,906.67ZM550.1,886.2a63.28,63.28,0,0,1-11.85-4.33,37,37,0,0,1-6.82-4.56c-11.56,1.68-23.11,2.86-34.56,3.53a33.14,33.14,0,0,0,5.46,3.57c4.76,2.46,9.76,3.57,14.81,5.11,5.3,1.62,9.88,3.61,14.19,7.29a39.85,39.85,0,0,1,7.58,8.88A156.75,156.75,0,0,1,550.1,886.2Zm10.06-14.05q-11.31,2.43-22.67,4.24c.85.55,1.74,1.07,2.67,1.55,4,2.1,8.25,3.21,12.52,4.44,2.28-3.3,4.74-6.66,7.34-10Zm41.78,7.65a32.64,32.64,0,0,0-12.05-6.26c-2.95,4.44-6.24,9.06-9.83,13.71q-3.15,4.08-6.29,7.85a48,48,0,0,1,3.9,5.62c10.51-4.59,20.63-9.46,30.1-14.35A34.25,34.25,0,0,0,601.94,879.8Zm19.55-15.53c-5-1.51-9.71-2.61-14.41-4.82q-5.24,1.72-10.54,3.32c-1.27,2.23-2.66,4.55-4.16,6.93a35.82,35.82,0,0,1,12.34,6.72,39.5,39.5,0,0,1,6.95,7.91l1.78-.94c6.78-3.61,14-7.65,21.41-12.06-.22-.2-.44-.4-.67-.59C630.34,867.45,626.23,865.72,621.49,864.27Zm28.15-10.58c-4.84-1.48-9.49-2.57-14.08-4.68q-10.86,4.41-22,8.26c3,1,6.06,1.79,9.13,2.73,5.35,1.64,10,3.64,14.32,7.36.61.52,1.2,1.06,1.77,1.63,6.24-3.78,12.6-7.8,19-12A41.36,41.36,0,0,0,649.64,853.69Zm24.85-9.13c-5.4-1.65-10.57-2.81-15.69-5.46l-.3-.16q-8.41,4-17.09,7.65c3.09,1.06,6.23,1.86,9.4,2.83a42.17,42.17,0,0,1,11,4.83c4.51-3,9-6.21,13.46-9.46Zm17.24-43.48.59-.12c0-.71,0-1.41,0-2.12l-3.76.95A15.68,15.68,0,0,0,691.73,801.08ZM663,806.94c6.87-1.5,14.14-3,21.71-4.49a17,17,0,0,1-1.58-1.35q-7.6,1.78-15.15,3.33-3.32.69-6.64,1.33A15.47,15.47,0,0,0,663,806.94Zm-24.81,5.95c5.95-1.6,12.41-3.17,19.32-4.73-.48-.45-.93-.92-1.36-1.41q-10.38,1.93-20.85,3.55A18.31,18.31,0,0,0,638.23,812.89ZM613.75,821a163.94,163.94,0,0,1,19.43-6.72,25,25,0,0,1-2.79-3.25q-11.75,1.74-23.52,3.14a27.06,27.06,0,0,0,4.69,5.2A21.78,21.78,0,0,0,613.75,821Zm-16.31,11.81c1.88-3.51,5.95-6.72,11.85-9.73a30.45,30.45,0,0,1-7.28-8.33q-12.54,1.44-25.07,2.57l-4.62.41a33.19,33.19,0,0,0,6.24,7.16c3.75,3.14,7.78,4.78,12.42,6.12C593.17,831.67,595.32,832.22,597.44,832.83ZM614.58,848c-8.27.52-14.46-.86-16.82-5.2a11.14,11.14,0,0,1-1.5-5.85c-2.14-.61-4.31-1.16-6.48-1.8-5.25-1.52-9.77-3.41-14-7a39.57,39.57,0,0,1-8.31-10.06q-17.15,1.44-34.42,2.44a40.66,40.66,0,0,0,9.21,11.76c4.13,3.47,8.57,5.26,13.68,6.75,5.79,1.68,11.34,2.84,16.8,5.58a38.59,38.59,0,0,1,7.36,4.81,102.06,102.06,0,0,1,12-10.22,16.51,16.51,0,0,0,1.91,5.58c1.72,3.18,4.67,5.17,8.39,6.3-.48,1.12-1,2.28-1.58,3.47q7.57-2.4,15-5.07C615.44,849.05,615,848.54,614.58,848Zm8.11-1c-1,.17-2,.32-3,.45l.39.51Zm55-17.32c-1.19.49-2.42,1-3.66,1.46-3.41,1.8-6.88,3.56-10.37,5.28,3.92,1.61,8,2.57,12,3.82,1.33.4,2.62.83,3.87,1.31q4.44-3.33,8.79-6.76a45.05,45.05,0,0,1-6.83-2.8A36,36,0,0,1,677.65,829.74Zm16.37.53q-.46-3.53-.79-7.08c-3,1.31-6.56,2.84-10.55,4.5l.75.39a49,49,0,0,0,9.05,3.44ZM855.39,904.2c31.18,67.66,26.79,172.25-13.15,229.52h0c-15.28,21.9-36.24,37.58-63.38,40.46l-9.12,28.46-9.13-28.46c-27.07-2.88-48.14-18.6-63.38-40.46h0C657.34,1076.45,653,971.86,684.13,904.2c-22.13,27.83-55,64.26-69.43,55.42-22.71-13.94,20.65-53.68,81-105.82l8,16.46a166.72,166.72,0,0,1-7.83-27.92C651,878.25,589.61,911.7,534.1,928.06a6,6,0,0,0,.81.39,92.14,92.14,0,0,1-12.35,8.43c-9.22,5.32-17.95,8.6-22.71,8.79A78.1,78.1,0,0,0,492,950c-13.36,8.35-22,18.6-29.31,32a2.86,2.86,0,0,1-3.82,1.17,2.84,2.84,0,0,1-1.2-3.89C465.47,965,474.8,954,489,945.16a91.76,91.76,0,0,1,8.48-4.68,29.25,29.25,0,0,1,4.53-4.82,198.9,198.9,0,0,1-23.71,2.72C385.59,943,341.66,810.64,408.89,812c66,1.38,177.89-.74,263.4-19.44C575,811.77,434.22,803,355.94,761.75c-101.36-53.42-64.68-221.63,5.81-177.83,80.33,49.92,229.35,133.8,339.79,158.64q1.71-5.14,3.73-10c-17.79-13-71.26-53.75-62-68.91,9.92-16.17,36.24,9.64,71.36,49.62a154.84,154.84,0,0,1-.62-27.16,23.49,23.49,0,0,1,10.4-44.23,77.35,77.35,0,0,1,8.42-14.34c-12.09-12.83-27.84-29.62-33.24-47.86-4-13.38,6.18-30.75,6.44-40,.11-4.18,1.79-5.92,2.54.89,1.47,13.25-6.07,25.25-2.64,34.39,8,21.38,26,32.39,37,42.16a43.37,43.37,0,0,1,53.62,0c11-9.77,29-20.78,37-42.16,3.43-9.14-4.11-21.14-2.64-34.39.75-6.81,2.43-5.07,2.54-.89.26,9.25,10.41,26.62,6.44,40-5.4,18.24-21.15,35-33.25,47.86a77.38,77.38,0,0,1,8.43,14.34,23.49,23.49,0,0,1,10.4,44.23,154.84,154.84,0,0,1-.62,27.16c35.11-40,61.44-65.79,71.36-49.62,9.3,15.16-44.18,56-62,68.91q2,4.88,3.73,10c110.44-24.84,259.46-108.72,339.78-158.64,70.5-43.8,107.18,124.41,5.82,177.83-78.29,41.26-219.07,50-316.37,30.84,85.52,18.71,197.44,20.83,263.42,19.45,67.23-1.4,23.3,131-69.42,126.34a198.9,198.9,0,0,1-23.71-2.72,29.69,29.69,0,0,1,4.53,4.82,90.25,90.25,0,0,1,8.47,4.68c14.22,8.88,23.54,19.83,31.32,34.16a2.84,2.84,0,0,1-1.2,3.89,2.86,2.86,0,0,1-3.82-1.17c-7.28-13.45-16-23.7-29.32-32a76.9,76.9,0,0,0-7.81-4.32c-4.76-.19-13.49-3.47-22.72-8.79a92.64,92.64,0,0,1-12.34-8.43,7.48,7.48,0,0,0,.81-.39c-55.51-16.36-116.93-49.81-161.85-85.72a167.67,167.67,0,0,1-7.82,27.92l8-16.46c60.4,52.14,103.76,91.88,81,105.82C910.41,968.46,877.52,932,855.39,904.2Z" fill="#4d4d4d" fill-rule="evenodd"/><path d="M697.25,1133.72a527.15,527.15,0,0,0,145,0,165.7,165.7,0,0,0,20.19-40.79,488.19,488.19,0,0,1-185.38,0,166,166,0,0,0,20.18,40.79" fill="#f64c72" fill-rule="evenodd"/><path d="M667.22,1053.06a450.31,450.31,0,0,0,205.08,0,284.76,284.76,0,0,0,3.52-38.95,412.73,412.73,0,0,1-212.12,0,284.76,284.76,0,0,0,3.52,38.95" fill="#2f2fa2" fill-rule="evenodd"/><path d="M665.27,976.21a375.28,375.28,0,0,0,209,0,264.68,264.68,0,0,0-6.5-36.59,337.91,337.91,0,0,1-196,0,264.68,264.68,0,0,0-6.5,36.59" fill="#f64c72" fill-rule="evenodd"/><path d="M683.89,904.7a300.74,300.74,0,0,0,171.74,0A141.29,141.29,0,0,0,835.36,872a264,264,0,0,1-131.2,0,141.29,141.29,0,0,0-20.27,32.68" fill="#2f2fa2" fill-rule="evenodd"/><path d="M414.07,601.83,769.76,396.47,580.05,286.94,170.57,523.36v691.89l599.19,345.94,126.47-73,63.24,36.51L769.76,1634.21,107.33,1251.76V486.85L516.81,250.43l-63.24-36.51L44.09,450.34v837.93l725.67,419L1086,1524.68l-63.24-36.51-126.48-73-126.47,73-536-309.43V559.87L580.05,360l63.24,36.51-294,169.74a60.81,60.81,0,0,1,18.88,7.91q22.69,14.1,45.9,27.71" fill="#f64c72" fill-rule="evenodd"/><path d="M360.28,1105.72V778q-5.13-2.4-10-5A125.5,125.5,0,0,1,297,719.15v423.08l472.72,272.92L833,1378.64Z" fill="#f64c72" fill-rule="evenodd"/><path d="M1179.24,778v327.73L833,1305.62l63.23,36.51,126.48,73L1369,1215.25V523.36l-599.19-346-63.24,36.51-63.24-36.51,126.48-73,662.43,382.46v764.91l-346.25,199.9,63.24,36.51,346.25-199.9V450.34l-725.67-419-253,146,63.24,36.51,126.47,73,63.24-36.51,536,309.44v618.87l-283,163.39-63.24-36.51,283-163.39V719.15A125.5,125.5,0,0,1,1189.24,773q-4.86,2.57-10,5" fill="#2f2fa2" fill-rule="evenodd"/><path d="M833,433l292.45,168.85q23.21-13.59,45.9-27.71a60.71,60.71,0,0,1,18.88-7.91l-294-169.74Z" fill="#2f2fa2" fill-rule="evenodd"/><rect x="-150.59" y="-1441.73" width="6078.89" height="4863.11" fill="none"/><path d="M1719.11,410.16q119.1,0,119.1,49.24,0,13.38-6.1,21.76t-23.29,18.71q-14.88,9.17-18.89,24t-4,60.31q0,26.73,9.92,32.83,5.73,3.83,17.37,4.58t54.78.76q39.32,0,48.86-4.2t9.54-21q0-50.38-4.58-70.24t-17.94-27.1q-16.8-9.54-22.14-16.23t-5.34-17.75q0-15.64,11.83-28.43t30.92-17.37q39.69-9.54,99.63-9.55,70.23,0,103.64,12.79t33.4,39.89q0,22.9-23.66,34.36-14.9,6.87-19.47,13.17t-7.26,23.47q-1.53,9.56-3.81,84.75t-2.29,119.48q0,77.49,5.72,98.48,3.06,11.46,6.87,15.27T2136,867.47q14.51,8,14.51,24.43,0,29-34.55,42.18t-112,13.17q-68,0-100.39-13.36-29.4-12.21-29.39-37.79,0-21.75,22.52-34,11.07-6.11,15.08-12.22t7.82-22.52q6.87-32.07,6.87-78.63,0-24.06-7.06-29.78t-36.84-5.73q-68.33,0-87,7.64-7.64,3.06-9.54,17.94-2.3,18.33-2.29,45,0,43.53,12.21,62.61,4.2,6.1,19.85,15.65,16,9.17,16,30.15,0,26.73-37,40.85T1689,947.25q-62.61,0-102.31-13-17.18-5.73-26.91-16.23T1550,895q0-12.6,6.11-19.47t26.72-17.56q10.68-5.34,15.08-13.74t6.68-28.25q5.72-44.67,5.72-116.81,0-13.35-.38-31.68-1.53-91.62-1.53-104.6.38-32.82-5.53-43.32t-31.11-23.1q-16.8-8-16.8-24.05,0-38.55,74.82-53.44A450.8,450.8,0,0,1,1719.11,410.16Z" fill="#2f2fa2"/><path d="M2429.58,410.54a422.06,422.06,0,0,1,82.07,7.64q51.92,10.31,51.92,43.9,0,11.07-5.15,16.6t-26.15,16.23q-17.57,8.77-23.1,38.55t-5.53,116q0,145.82,7.25,180.55,2.67,11.09,8.21,17t19.27,12.79q25.2,11.45,25.2,33.21,0,30.54-46.57,42-50.39,12.21-123.3,12.21-124.45,0-124.44-47.33,0-17.17,24.43-32.07,18.69-11.45,22.14-31.3,7.24-43.51,7.25-184.75,0-97.72-9.93-125.21-5.34-15.65-25.57-28.25-15.66-10.3-21-17.18t-5.34-17.56q0-16.41,15.84-26.14T2333,420.09A491.39,491.39,0,0,1,2429.58,410.54Z" fill="#2f2fa2"/><path d="M3199.6,536.9,3024.39,891.52q-16,32.84-30.54,45.24t-36.65,12.4q-18.32,0-32.83-8Q2913.3,935,2907,926.83t-15.84-29.58L2735,553.31q-13-29-23.48-39.51t-30-13.93q-22.9-4.2-22.9-28.25,0-29.39,40.08-45.24t114.9-15.84q77.88,0,114.52,11.84T2964.84,459q0,16-19.85,29.78-15.28,10.31-15.27,19.47,0,8.4,6.87,24L2984.3,640q10.3,23.67,23.29,23.67,12.6,0,22.52-12.6t26.72-49.62Q3087,535,3092,523t5-18.51q0-13-17.94-22.14Q3059.13,472,3059.12,456q0-45.42,121.77-45.43,60.71,0,85.7,9.74t25,33.4q0,28.24-32.83,32.45-23.3,2.67-30.16,7.63Q3216.39,502.55,3199.6,536.9Z" fill="#2f2fa2"/><path d="M3465,418.56h196.21q59.55,0,86.84-2.48A276.25,276.25,0,0,0,3801.27,406q8-2.28,12.6-2.29,19.85,0,35.12,21.38,25.2,34.74,25.19,84,0,24.81-10.49,39.13t-28.82,14.31q-12.6,0-19.66-5.15t-18.9-23.1q-16.8-25.56-42.56-34.16t-84.55-8.59q-43.9,0-53.45,15.65-5,8.4-5.91,22.52t-1,72.15q0,22.9,7.64,28.44t40.08,5.53q16,0,23.28-6.68t9.16-23.86q2.67-22.12,5.54-30.34a31.57,31.57,0,0,1,10.5-14.32,27.85,27.85,0,0,1,18.7-6.87q15.64,0,26.72,14.89,8,11.07,13.55,39.13a302.08,302.08,0,0,1,5.54,58.59q0,60.32-18.7,98.87-10.32,21-31.31,21-13,0-17.94-6.68T3694,751.81q-5.73-43.14-50.39-43.14-17.17,0-23.48,10.88t-6.3,40.27q0,18,2.49,46.39t5.15,37.6q3,11.45,18.9,15.84t52.86,4.39q57.27,0,86.27-14.7t47.34-53.25q10.68-22.14,19.28-29.78t22.33-7.63q16,0,26.53,13.93t10.5,34.93q0,22.9-11.84,57.26t-29,61.08q-8.79,13-14.51,17.37t-14.5,4.39q-7.26,0-21-2.3-24.43-4.58-65.27-5.72H3425.65q-19.47,0-30.15-8.59t-10.69-24.24q0-11.07,4.58-16t21-12.6q11.46-4.95,17-12.21t8.59-21.38q12.6-57.63,12.6-155.36,0-147.35-18.33-185.91-3.81-7.62-8.4-10.69t-19.08-7.25q-21.77-6.48-21.76-29a35.07,35.07,0,0,1,7.25-21.76A33.94,33.94,0,0,1,3407.33,422Q3422.21,418.55,3465,418.56Z" fill="#2f2fa2"/><path d="M3170,1087.15q0,10.27-34,50.59h-4.75q-5.26-2.12-6.58-15.55-2.91-27.12-18.71-44.39T3068,1060.55q-20.82,0-35.83,15.13a49.58,49.58,0,0,0-15,36.18q0,15.27,9.54,32.76t49.39,55.5q39.87,38,51.19,60.52t11.33,42.81q0,46.89-40.7,82.59t-95.24,35.7q-45,0-74.29-21t-29.25-34.11q0-7.38,16.08-34.25t18.44-26.88q8.43,0,12,4.88t4.88,18q3.95,41.1,19.89,56.65t41.49,15.54q27.93,0,48.74-19.35t20.81-44.87q0-13.17-8.08-28t-45.57-50.61q-37.5-35.74-49.09-60.51t-11.59-48.22q0-40.83,30.82-75.08t81.93-34.25q38.73,0,64.42,17.79T3170,1087.15Z" fill="#f64c72"/><path d="M3585.36,1107.7A92.39,92.39,0,0,0,3560.3,1144q-7.83,20.7-16.11,86.15t-26.6,103.12q-18.32,37.68-57.71,62.83a157.69,157.69,0,0,1-86.58,25.16q-33.47,0-54.42-16.6t-21-42.41q0-9.75,6.06-15.94t24.77-16.73q18.69-10.53,25.29-10.54a10.65,10.65,0,0,1,7.64,3,9.72,9.72,0,0,1,3.16,7.24q0,2.64-2.5,19.5t-2.51,20q0,31.37,26.35,31.35,29.76,0,50-34.9t29.38-109.07q9.09-74.16,27.53-104.72t43.07-43.34q24.63-12.78,34.12-12.78Q3576.93,1095.32,3585.36,1107.7Zm-49.53-68.49q55.58,0,88.52,27t32.93,72q0,41.64-24.37,66.79t-42,25.16q-6.58,0-14.89-5.8t-8.29-10.54q0-2.62,12.38-19,29-35.84,29-71.14,0-29.76-20-47.29T3534.77,1059q-51.63,0-93.52,31.48t-41.89,68.89q0,24.77,22.66,34,9,4,8.95,10.81,0,7.11-19.75,16.59t-27.67,9.49q-11.85,0-22.39-15.68a59.86,59.86,0,0,1-10.54-34.11q0-49.53,53.22-95.37T3535.83,1039.21Z" fill="#f64c72"/><path d="M4126.42,1357.19q-60.59,64.55-111.17,64.55-27.93,0-44.26-19.76t-18.18-56.38q-31.87,38.73-56.51,57.43t-52.56,18.71q-35.82,0-57.56-31t-21.74-82.59q0-61.65,28.46-127.12t84.3-103.4q55.85-37.93,135.41-37.94,59.54,0,107.76,16.07v17.39q-39.27,45.84-65.74,128.3t-26.47,125.67q0,21.08,8.56,32.67t23.84,11.59q27.41,0,65.86-44.53Zm-76.66-284A107.57,107.57,0,0,0,3997.6,1060q-44,0-79.3,36.75t-55.72,97.35q-20.41,60.59-20.42,105.11,0,29.77,11.46,48.34t29.38,18.58q31.08,0,71.39-56.64Q3971,1160.92,4049.76,1073.19Z" fill="#f64c72"/><path d="M4528.92,1357.19q-62.44,64.55-150.69,64.55-63.24,0-103.67-39.65t-40.44-101.83q0-61.9,29.24-117.76t76.53-89.31q47.29-33.45,92.87-33.46,38.19,0,62.31,22.92t24.1,59.54q0,47.68-29.11,82.59t-68.1,34.91q-20.55,0-33.72-10.54T4375.07,1202q0-14.24,11.32-26.35,8.43,15.55,23.19,15.55,21.08,0,39.12-26.35a99.94,99.94,0,0,0,18.05-57.69q0-21.87-10.15-34.78t-27-12.91q-24.49,0-52.3,30.56t-46.36,78.51q-18.58,48-18.58,91.15,0,55.07,31.22,90.37t79.43,35.3q30.56,0,55.06-14.16t50.85-44.33Z" fill="#f64c72"/><path d="M4908.76,1356.66q-34,33.33-68.24,48.94t-77.45,15.61q-57.16,0-91.55-27.66t-34.38-72.72q0-39.24,28.19-68.89t86.41-41.23q-56.11-21.33-56.11-71.92,0-40.3,38.72-69.68t93.27-29.38q39.24,0,56.9,15.41t17.65,28.06q0,7.9-13.17,24.5t-19.23,16.6q-7.11,0-10.28-20-7.38-44.79-36.09-44.79-22.39,0-40.57,25a94,94,0,0,0-18.18,56.64q0,50.58,49.53,50.58,8.16,0,11.06.93t2.9,4.61a70.55,70.55,0,0,1-4,22q-3.94,12-10,12-1.85,0-13.17-1.45a159.7,159.7,0,0,0-19.76-1.45q-27.93,0-47.95,22.92t-20,55.33q0,35,23.45,58.09t59.27,23q29.51,0,59-15.87t53.75-45.51Z" fill="#f64c72"/></svg>